<?xml version="1.0" encoding="UTF-8"?>
<!DOCTYPE svg PUBLIC "-//W3C//DTD SVG 1.1//EN" "http://www.w3.org/Graphics/SVG/1.1/DTD/svg11.dtd">
<!-- Creator: CorelDRAW Home & Student 2018 -->
<svg xmlns="http://www.w3.org/2000/svg" xml:space="preserve" width="210mm" height="297mm" version="1.1" style="shape-rendering:geometricPrecision; text-rendering:geometricPrecision; image-rendering:optimizeQuality; fill-rule:evenodd; clip-rule:evenodd"
viewBox="0 0 21000 29700"
 xmlns:xlink="http://www.w3.org/1999/xlink">
 <defs>
  <style type="text/css">
   <![CDATA[
    .fil1 {fill:black}
    .fil0 {fill:url(#id0)}
   ]]>
  </style>
  <linearGradient id="id0" gradientUnits="userSpaceOnUse" x1="12244.65" y1="18235.47" x2="8098.48" y2="7121.22">
   <stop offset="0" style="stop-opacity:1; stop-color:#36D18B"/>
   <stop offset="1" style="stop-opacity:1; stop-color:#CEDE66"/>
  </linearGradient>
 </defs>
 <g id="Layer_x0020_1">
  <metadata id="CorelCorpID_0Corel-Layer"/>
  <rect class="fil0" x="5171.56" y="7678.34" width="10000" height="10000"/>
  <g id="_713646072">
   <path class="fil1" d="M8131.19 12317.22c-3.53,-316.05 -15.82,-584.72 -48.8,-885.42 -6.99,-63.81 -15.19,-129.76 -23.63,-195.88 -6.6,-51.68 -22.09,-127.25 -36.39,-196.68 -25.76,-125.02 -59.66,-256.03 -95.72,-369.36 -126.05,-396.2 -412.83,-930.31 -845.34,-970.35 53.96,112.37 175.86,481.17 211.04,621.21 56.6,225.27 100.07,465.82 120.05,721.12 22.05,281.75 15.74,1369.32 -120.33,1531.61 -126.16,-50.1 -384.5,-393.18 -468.45,-519.72 -311.76,-469.89 -402.36,-1078.42 -308.56,-1652.45 64.42,-394.26 208.48,-707.05 221.74,-806.57l-252.95 200.57c-34.83,33.27 -54.29,61.21 -103.69,112.46 -508.63,527.66 -888.09,1195.32 -948.8,1982.79 -85.69,1111.72 406.4,2087.59 854.3,2739.87 195.85,285.21 552.01,763.51 800.84,987.78 146.06,131.63 323.04,282.57 573.44,306.87 350.06,33.96 399.03,-111.71 516.69,-364.58 21.98,-47.24 45.58,-98.75 65.98,-153.22 10.97,-29.27 21.46,-56.96 30.34,-84.02 13.51,-41.15 3.56,-8.29 11.74,-40.84 4.75,-18.92 8.01,-34.58 12.4,-54 75.57,-334.73 50.67,-970.34 23.1,-1292.05 -43.08,-502.83 -150.63,-839.88 -186.34,-1174.47 -13.52,-126.67 -0.98,-294.22 -2.66,-444.67z"/>
   <path class="fil1" d="M13611.39 9548.63l-15.27 0c81,293.85 158.6,369.56 227.65,792.48 51.69,316.55 54.83,625.63 -6.51,931.21 -59.09,294.35 -158.78,512.05 -285.78,730.13 -68.99,118.47 -145.01,187.71 -217.01,280.73 -26.91,34.76 -67.97,92.29 -119.61,135.89 -50.34,42.51 -84.82,88.17 -150.89,106.79 -59.2,-144.59 -101.03,-519.24 -116.94,-705.46 -48.68,-569.97 -2.59,-999.62 128.9,-1533.57 14.19,-57.62 26.64,-106.56 44.38,-160.62 4.88,-14.85 7.74,-21.89 12.92,-37.67l37.45 -119.37c23.46,-68.08 105.26,-260.73 105.61,-307.44 -112.9,-5.96 -287.32,113.07 -356.69,173.32 -122.44,106.33 -166.86,158.94 -262.59,298.86 -316.86,463.15 -395.47,1281.9 -416.93,1856.21 -14.33,383.34 4.28,714.66 -70.99,1077.99 -113.67,548.67 -224.43,1519.9 -110.5,2089.25 38.51,192.43 208.46,677.09 405.17,722.31 172.18,39.58 349.21,5.5 483.61,-59.66l353.63 -267.39 726.59 -879.15c576.6,-814 1055.15,-1924.79 875.71,-3019.42 -58.56,-357.18 -177.55,-730.08 -355.58,-1034.57l-170.05 -275.92c-129.73,-163.16 -147.91,-209.62 -312.65,-387.1 -98.39,-106 -270.83,-290.61 -394.56,-375.79 -9.24,-6.36 -12.83,-8.52 -21.41,-15.49 -17.48,-14.2 -11.4,-9.58 -17.66,-16.55z"/>
   <path class="fil1" d="M11639.02 17678.33c6.24,-111.12 34.96,-107.65 107.43,-664.09 72.47,-556.44 72.47,-556.44 72.47,-556.44 -2.78,-666.11 26.66,-1236.63 -134.79,-1871.2 -113.06,-444.35 -281.75,-818.39 -519.74,-1168.69 -31.98,-47.07 -72.39,-92.56 -98.45,-149.61 318.34,-110.4 253.74,-463.3 103.25,-520.73 -70.49,-26.9 -174.18,3.73 -244.57,-28.93 -131.74,-61.13 -286.31,-408.28 -751.29,-382.89 -238.02,13 -410.89,117.7 -577.92,272.57 -50.22,46.58 -82.17,117.08 -177.09,95.51 -354.89,-80.64 -407.47,371.8 -142.36,506.34 34.93,17.73 62.79,25.88 92.09,42.97 -38.28,98.44 -130.82,203.18 -192.78,299.89 -346.62,541.06 -610.96,1179.61 -653.14,1873.86 -17.83,293.47 -53.64,230.86 -31.91,524.74 -25.68,21.09 63.83,793.27 114.12,1033.05 50.28,239.78 12.36,127.11 84.6,410.38 72.25,283.27 72.25,283.27 72.25,283.27l684.84 0 322.88 0c-0.07,-0.43 -202.86,-1319.18 -233.27,-1438.42 -30.41,-119.26 -14.45,-71.84 -35.63,-172.8 -21.16,-100.96 -58.86,-426.09 -48.04,-434.97 -9.16,-123.74 5.92,-97.38 13.44,-220.94 17.76,-292.32 129.06,-561.19 275,-789 0.46,-0.72 384.96,-540.85 837.52,-56.89 100.21,147.49 171.24,304.98 218.84,492.08 67.98,267.19 55.58,507.41 56.76,787.88 0,0 -0.01,0.01 -30.52,234.29 -30.51,234.27 -236.62,1551.86 -239.26,1598.77l1055.27 0zm-720.04 0l720.04 0 -720.04 0z"/>
  </g>
 </g>
</svg>
